# xmcd
#
# Track frame offsets:
#	150
#	28081
#	49281
#	73460
#	96885
#	115515
#	132539
#	149231
#	169315
#	186752
#	208243
#	231995
#	251292
#	267462
#	285029
#	315568
#
# Disc length: 4213 seconds
#
# Revision: 1
# Processed by: cddbd v1.5.2PL0 Copyright (c) Steve Scherf et al.
# Submitted via: audiograbber 1.83.01
#
DISCID=fd107310
DTITLE=Tim McGraw - 90370 Vol. 4
DYEAR=1900
DGENRE=Country
TTITLE0=Angel Boy
TTITLE1=Sing Me Home
TTITLE2=Tiny Dancer
TTITLE3=Home
TTITLE4=Illegal
TTITLE5=My Old Friend
TTITLE6=When The Stars Go Blue
TTITLE7=I've Got Friends That Do
TTITLE8=My Little Girl
TTITLE9=Last Dollar (Fly Away)
TTITLE10=Suspicions
TTITLE11=If Your Reading This
TTITLE12=Kristofferson
TTITLE13=Let It Go
TTITLE14=Nothin' To Die For
TTITLE15=Data Track
EXTD=
EXTT0=
EXTT1=
EXTT2=
EXTT3=
EXTT4=
EXTT5=
EXTT6=
EXTT7=
EXTT8=
EXTT9=
EXTT10=
EXTT11=
EXTT12=
EXTT13=
EXTT14=
EXTT15=
PLAYORDER=
